# xmcd
#
# Track frame offsets:
#	150
#	15407
#	35090
#	50929
#	65891
#	85128
#	96940
#	112240
#	129972
#	148453
#	162703
#	179746
#	193658
#	207533
#	217095
#	230520
#	245257
#	258307
#
# Disc length: 3631 seconds
#
# Revision: 0
# Processed by: cddbd v1.5.2PL0 Copyright (c) Steve Scherf et al.
# Submitted via: MusicManager 7.3.0.0 
#
DISCID=270e2d12
DTITLE=JOHNNY MARKS - THE WISHING WELL
DYEAR=1900
DGENRE=country
TTITLE0=MEMORIES ARE MADE OF THIS
TTITLE1=FOOLISH PRIDE
TTITLE2=ONE NIGHT AT A TIME
TTITLE3=YOU ARE NO ANGEL
TTITLE4=MY FAREWELL PARTY
TTITLE5=THE WISHING WELL
TTITLE6=YOU'RE ALWAYS THERE FOR ME
TTITLE7=DEVIL WOMAN
TTITLE8=ON YOUR WEDDING DAY
TTITLE9=IT MUST BE LOVE
TTITLE10=WHEN YOU SAY NOTHING AT ALL
TTITLE11=HEY GOOD LOOKING
TTITLE12=THE FARMERS DAUGHTER
TTITLE13=KISS AN ANGEL GOOD MORNING
TTITLE14=THE WINDOW ABOVE
TTITLE15=A GOOD HEARTED WOMAN
TTITLE16=AMARILLO BY MORNING
TTITLE17=RAMBLIN' FEVER
EXTD=
EXTT0=
EXTT1=
EXTT2=
EXTT3=
EXTT4=
EXTT5=
EXTT6=
EXTT7=
EXTT8=
EXTT9=
EXTT10=
EXTT11=
EXTT12=
EXTT13=
EXTT14=
EXTT15=
EXTT16=
EXTT17=
PLAYORDER=
